<?xml version="1.0" encoding="utf-8"?>
<!-- Generator: Adobe Illustrator 25.0.1, SVG Export Plug-In . SVG Version: 6.00 Build 0)  -->
<svg version="1.1" id="Layer_1" xmlns="http://www.w3.org/2000/svg" xmlns:xlink="http://www.w3.org/1999/xlink" x="0px" y="0px"
	 viewBox="0 0 512 512" style="enable-background:new 0 0 512 512;" xml:space="preserve">
<style type="text/css">
	.st0{fill:#999999;}
</style>
<path class="st0" d="M512,341.3V448c0,35.3-28.7,64-64,64H341.3c-60.9-0.1-117.2-32.6-147.6-85.3c16.1-0.1,32.1-1.9,47.8-5.3
	c24.2,30.3,61,48,99.8,48H448c11.8,0,21.3-9.6,21.3-21.3V341.3c0-38.8-17.7-75.6-48-99.8c3.4-15.7,5.2-31.7,5.4-47.8
	C479.4,224.2,511.9,280.4,512,341.3z M383.5,205.9C391.2,100.1,311.7,8.2,205.9,0.5c-9.3-0.7-18.5-0.7-27.8,0
	C77.3,12,0.9,96.8,0,198.3v107.5c0,54,32.1,78.2,64,78.2h121.6C287.1,383.1,372,306.7,383.5,205.9z M297.6,86.4
	c30.6,30.7,46.5,73.2,43.3,116.5c-9.4,78.7-76,138.1-155.3,138.4H64c-19.8,0-21.3-27.2-21.3-35.5V198.3
	C43,119,102.4,52.4,181.1,43.1c3.5-0.3,7.1-0.4,10.6-0.4C231.4,42.6,269.5,58.4,297.6,86.4L297.6,86.4z"/>
</svg>
