<?xml version="1.0" encoding="utf-8"?>
<!-- Generator: Adobe Illustrator 25.0.1, SVG Export Plug-In . SVG Version: 6.00 Build 0)  -->
<svg version="1.1" id="Outline" xmlns="http://www.w3.org/2000/svg" xmlns:xlink="http://www.w3.org/1999/xlink" x="0px" y="0px"
	 viewBox="0 0 512 512" style="enable-background:new 0 0 512 512;" xml:space="preserve">
<style type="text/css">
	.st0{fill:#FF5F6D;}
</style>
<path class="st0" d="M490.7,469.3H64c-11.8,0-21.3-9.6-21.3-21.3V21.3C42.7,9.6,33.1,0,21.3,0S0,9.6,0,21.3V448
	c0,35.3,28.7,64,64,64h426.7c11.8,0,21.3-9.6,21.3-21.3C512,478.9,502.4,469.3,490.7,469.3z"/>
<path class="st0" d="M320,426.7c11.8,0,21.3-9.6,21.3-21.3V256c0-11.8-9.6-21.3-21.3-21.3c-11.8,0-21.3,9.6-21.3,21.3v149.3
	C298.7,417.1,308.2,426.7,320,426.7z"/>
<path class="st0" d="M149.3,426.7c11.8,0,21.3-9.6,21.3-21.3V256c0-11.8-9.6-21.3-21.3-21.3S128,244.2,128,256v149.3
	C128,417.1,137.6,426.7,149.3,426.7z"/>
<path class="st0" d="M405.3,426.7c11.8,0,21.3-9.6,21.3-21.3v-256c0-11.8-9.6-21.3-21.3-21.3s-21.3,9.6-21.3,21.3v256
	C384,417.1,393.6,426.7,405.3,426.7z"/>
<path class="st0" d="M234.7,426.7c11.8,0,21.3-9.6,21.3-21.3v-256c0-11.8-9.6-21.3-21.3-21.3s-21.3,9.6-21.3,21.3v256
	C213.3,417.1,222.9,426.7,234.7,426.7z"/>
</svg>
