<?xml version="1.0" encoding="utf-8"?>
<!-- Generator: Adobe Illustrator 25.0.1, SVG Export Plug-In . SVG Version: 6.00 Build 0)  -->
<svg version="1.1" id="Layer_1" xmlns="http://www.w3.org/2000/svg" xmlns:xlink="http://www.w3.org/1999/xlink" x="0px" y="0px"
	 viewBox="0 0 512 512" style="enable-background:new 0 0 512 512;" xml:space="preserve">
<style type="text/css">
	.st0{fill:#999999;}
</style>
<path class="st0" d="M510.1,427.2l-22.5-127.1c30.4-27.5,32.8-74.4,5.3-104.8c-7.4-8.2-16.5-14.6-26.7-18.8
	C446,60.4,335.4-17.2,219.4,3.1C133.7,18,65.7,83.5,47.5,168.5L32,256h32c38.3-0.2,76.1-9,110.6-25.6c-2.5,4.6-3.9,9.7-3.9,14.9
	c-0.1,17.7,14.2,32.1,31.9,32.1s32.1-14.2,32.1-31.9c0.1-16.6-12.6-30.5-29.1-32c45.5-28.4,84.1-66.7,112.8-112
	c-12.6-7-26.2-11.8-40.4-14.2c-32.8,48.6-102.6,116.5-194.9,125l6.3-35.6c20.3-92,111.3-150.2,203.4-129.9
	c71.5,15.8,125.1,75.4,133,148.3l1.7,15.9l15.7,2.8c17.3,3.4,28.7,20.2,25.3,37.5c-2.9,14.9-15.9,25.7-31,25.9
	c-1.8,0-23.2-3.7-23.2-3.7l-6,17.1c-19.6,55.4-85.4,114.7-152.1,114.7c-61,0-121.1-49.6-146-100.3l-10.9,61.4
	c20.3,24.9,45.4,45.3,73.9,60.2h-2.4v42.7H69.1c-14.6-0.1-26.5-12-26.4-26.6c0-1.9,0.2-3.8,0.6-5.7l24.5-138.7
	c-1.3,0-2.5,0.2-3.8,0.2H24.5L1.4,429.1c-7.6,37.4,16.5,73.9,53.9,81.5c4.5,0.9,9.2,1.4,13.8,1.4h144.3v-69.7
	c27.9,7.6,57.4,7.6,85.3,0V512h144.3c21.4,0.1,41.6-9.8,54.6-26.8C510.4,468.9,515.1,447.5,510.1,427.2z M463.8,459.1
	c-5,6.5-12.7,10.3-20.9,10.2H341.3v-43.6c44-23.7,79.4-60.7,100.9-105.9c1.8-0.1,3.5-0.6,5.3-0.9l20.9,117.3
	C470.5,444.2,468.8,452.6,463.8,459.1z M309.3,277.3c-17.7,0-32-14.3-32-32s14.3-32,32-32s32,14.3,32,32S327,277.3,309.3,277.3z"/>
</svg>
