<?xml version="1.0" encoding="utf-8"?>
<!-- Generator: Adobe Illustrator 24.0.1, SVG Export Plug-In . SVG Version: 6.00 Build 0)  -->
<svg version="1.1" id="레이어_1" xmlns="http://www.w3.org/2000/svg" xmlns:xlink="http://www.w3.org/1999/xlink" x="0px"
	 y="0px" viewBox="0 0 559.1 283.5" style="enable-background:new 0 0 559.1 283.5;" xml:space="preserve">
<style type="text/css">
	.st0{fill:#FF5F6D;}
</style>
<g>
	<path class="st0" d="M37.3,188.1c-2.1-2.2-3.2-6.4-3.2-12.5c0-4.1,0.4-9.5,1.3-15.9c0.9-6.5,2.3-15.4,4.3-26.8
		c3.5-21,6.2-39.2,8.2-54.6c1.2-9.6,1.8-17.7,1.8-24.1c0-6-2.2-9-6.6-9c-3.5,0-7.7,1.8-12.5,5.3c-4.9,3.6-10.3,9.2-16.2,17
		c-1.9,2.5-3.9,3.8-6.2,3.8c-1.9,0-3.5-0.9-4.9-2.7c-1.4-1.8-2.1-3.8-2.1-6.1c0-2.1,0.4-4.3,1.3-6.5c0.9-2.2,2.3-4.7,4.3-7.5
		c6.4-9,13.6-15.9,21.5-20.8s15.8-7.3,23.7-7.3c7.4,0,13,2.3,17,7c3.9,4.7,5.9,11.5,5.9,20.5c0,3.6-0.3,7.9-1,12.7
		c-0.7,4.9-1.3,8.9-1.8,11.9c-0.5,3.1-0.9,5.2-1.2,6.4C78.4,57,87,41.8,96.5,33.2c9.5-8.6,19.9-12.9,31.3-12.9
		c8.7,0,15.6,3.1,20.6,9.2c5,6.2,7.5,14.9,7.5,26.1c0,4.4-0.6,9.9-1.8,16.5c6.7-18.5,14.5-31.7,23.5-39.7c9-8,19.3-12,30.9-12
		c9.4,0,16.6,3,21.6,9c5,6,7.5,14.5,7.5,25.3c0,5.9-0.9,13-2.6,21.5l-12.2,57.4c-1.3,6.7-2,12.4-2,17.3c0,5.6,1.3,9.8,3.9,12.6
		c2.6,2.8,6.2,4.2,10.9,4.2c4.4,0,8.7-1.5,12.9-4.4c4.2-2.9,9.2-7.8,14.9-14.6c1.6-1.9,3.4-2.8,5.4-2.8c1.7,0,3.1,0.8,4.1,2.4
		c1,1.6,1.5,3.8,1.5,6.6c0,5.2-1.3,9.4-3.8,12.4c-7,8.4-13.8,14.6-20.7,18.5c-6.8,3.9-14,5.8-21.5,5.8c-11.4,0-20.3-3.4-26.7-10.1
		c-6.4-6.8-9.6-15.8-9.6-27.2c0-7.9,1.6-19.3,4.8-34.3l8-36.7c0.3-1.2,0.7-3.3,1.4-6.4c0.7-3.1,1.2-6,1.6-8.7
		c0.4-2.7,0.6-5.4,0.6-8.1c0-4.7-0.9-8.2-2.7-10.5c-1.8-2.3-4.4-3.5-7.7-3.5c-6.3,0-12.9,4-19.8,12.1c-6.9,8.1-13.4,21.5-19.7,40.2
		s-11.3,43.1-15.2,73c-0.9,8-2.6,13.4-4.9,16.1c-2.3,2.7-6.1,4.1-11.3,4.1c-4.5,0-7.9-1.1-9.9-3.2c-2.1-2.1-3.1-6.2-3.1-12
		c0-5.5,0.7-12.7,2.2-21.6c1.5-8.9,3.3-19.4,5.6-31.4c6.1-32.4,9.2-53.2,9.2-62.6c0-5.1-1-8.8-2.9-11.2c-1.9-2.4-4.8-3.6-8.7-3.6
		c-6.6,0-13.3,3.7-20.3,11.1c-7,7.4-13.7,20.6-20.4,39.5c-6.6,18.9-12.1,44.5-16.5,76.7c-0.9,6.8-2.3,11.6-4.1,14.2
		c-1.8,2.7-5.3,4-10.5,4C42.9,191.4,39.4,190.3,37.3,188.1z"/>
	<path class="st0" d="M364.5,131.4c0.9,1.7,1.4,3.9,1.4,6.6c0,6.4-1.9,10.2-5.8,11.4c-8,2.8-16.9,4.4-26.5,4.8
		c-2.5,11.2-7.6,20.2-15,27c-7.5,6.8-16,10.1-25.5,10.1c-8,0-14.9-1.9-20.6-5.8c-5.7-3.9-10-9-12.9-15.4c-2.9-6.4-4.4-13.4-4.4-20.9
		c0-10.2,1.9-19.2,5.8-27.2c3.9-8,9.2-14.2,16.1-18.7c6.8-4.5,14.4-6.7,22.7-6.7c10.2,0,18.4,3.5,24.6,10.5c6.2,7,9.9,15.7,10.9,26
		c6.3-0.4,13.8-1.7,22.5-4c1.1-0.3,2-0.4,2.8-0.4C362.2,128.8,363.6,129.7,364.5,131.4z M305.8,164.9c3.1-3.5,5.2-8.5,6.3-15
		c-4.1-2.8-7.3-6.5-9.5-11c-2.2-4.5-3.3-9.4-3.3-14.5c0-2.1,0.2-4.3,0.6-6.4h-1c-5.4,0-9.8,2.6-13.3,7.7c-3.5,5.2-5.3,12.4-5.3,21.8
		c0,7.4,1.4,13,4.3,16.9c2.9,3.9,6.3,5.8,10.1,5.8C299,170.1,302.7,168.4,305.8,164.9z"/>
	<path class="st0" d="M428.8,148.1c1,1.6,1.5,3.8,1.5,6.6c0,5.4-1.3,9.5-3.8,12.4c-5.8,7.1-12,12.9-18.8,17.5
		c-6.8,4.5-14.4,6.8-23,6.8c-11.8,0-20.5-5.3-26.2-16.1c-5.7-10.7-8.5-24.5-8.5-41.5c0-16.3,2.1-34.9,6.3-55.8
		c4.2-20.9,10.4-38.8,18.7-53.8c8.2-15,18-22.5,29.4-22.5c6.4,0,11.5,3,15.1,8.9c3.7,6,5.5,14.5,5.5,25.6c0,15.9-4.4,34.4-13.2,55.4
		c-8.8,21-20.8,41.8-35.9,62.4c0.9,5.5,2.5,9.4,4.6,11.7c2.1,2.3,4.9,3.5,8.4,3.5c5.5,0,10.3-1.6,14.5-4.7
		c4.1-3.1,9.4-8.5,15.8-16.1c1.6-1.9,3.4-2.8,5.4-2.8C426.4,145.7,427.8,146.5,428.8,148.1z M389.6,38.3
		c-3.9,11.1-7.3,24.9-10.2,41.3c-2.9,16.5-4.5,32.2-4.8,47.4c9.5-15.7,17.1-31.3,22.7-47c5.6-15.7,8.4-30.1,8.4-43
		c0-10.2-1.9-15.2-5.6-15.2C396.9,21.7,393.5,27.2,389.6,38.3z"/>
	<path class="st0" d="M494.2,148.1c1,1.6,1.5,3.8,1.5,6.6c0,5.4-1.3,9.5-3.8,12.4c-5.8,7.1-12,12.9-18.8,17.5
		c-6.8,4.5-14.4,6.8-23,6.8c-11.8,0-20.5-5.3-26.2-16.1c-5.7-10.7-8.5-24.5-8.5-41.5c0-16.3,2.1-34.9,6.3-55.8
		c4.2-20.9,10.4-38.8,18.7-53.8c8.2-15,18-22.5,29.4-22.5c6.4,0,11.5,3,15.1,8.9c3.7,6,5.5,14.5,5.5,25.6c0,15.9-4.4,34.4-13.2,55.4
		c-8.8,21-20.8,41.8-35.9,62.4c0.9,5.5,2.5,9.4,4.6,11.7c2.1,2.3,4.9,3.5,8.4,3.5c5.5,0,10.3-1.6,14.5-4.7
		c4.1-3.1,9.4-8.5,15.8-16.1c1.6-1.9,3.4-2.8,5.4-2.8C491.9,145.7,493.2,146.5,494.2,148.1z M455,38.3c-3.9,11.1-7.3,24.9-10.2,41.3
		c-2.9,16.5-4.5,32.2-4.8,47.4c9.5-15.7,17.1-31.3,22.7-47s8.4-30.1,8.4-43c0-10.2-1.9-15.2-5.6-15.2
		C462.4,21.7,458.9,27.2,455,38.3z"/>
	<path class="st0" d="M556.1,98.1c1.2,0.8,1.8,2.1,1.8,4c0,3.2-1.7,14.6-5.2,34.3c-3.1,18.9-4.9,30-5.4,33.5
		c-4.9,34.4-11.8,61.6-20.5,81.7c-8.7,20.1-20.3,30.1-34.7,30.1c-6.8,0-12.4-2.1-16.7-6.3c-4.3-4.2-6.4-9.7-6.4-16.6
		c0-6.3,1.4-12.7,4.3-19.3c2.9-6.6,8.2-14.1,16.1-22.6c7.8-8.5,18.9-18.2,33.2-29.2l0.6-4.6c0.9-4.9,2-12,3.2-21.3
		c-2.7,9.6-6.4,17-11.2,22c-4.8,5-9.9,7.5-15.3,7.5c-6,0-10.9-2.8-14.7-8.3c-3.8-5.6-5.7-12.5-5.7-20.8c0-10,0.7-19.2,2-27.6
		c1.3-8.4,3.5-17.2,6.6-26.6c1.3-4,3.2-6.9,5.6-8.6c2.4-1.7,6.2-2.6,11.4-2.6c2.9,0,5,0.5,6.1,1.4c1.1,0.9,1.7,2.3,1.7,4.2
		c0,1.1-0.7,4.7-2.2,10.8c-1.3,4.9-2.4,9.4-3.2,13.4c-1.1,5.5-2,10.7-2.8,15.8c-0.8,5-1.2,9.1-1.2,12.3c0,5.1,1.4,7.6,4.2,7.6
		c2,0,4.5-2,7.5-6c3-4,6.2-10.1,9.6-18.3c3.4-8.2,6.7-18.2,9.9-30.1c1.1-4,2.7-6.9,4.9-8.6c2.2-1.7,5.5-2.6,9.9-2.6
		C552.8,96.9,554.9,97.3,556.1,98.1z M505.6,250.6c4.1-7.8,8.3-20.7,12.4-38.7c-10.3,8.7-17.8,16.6-22.4,23.8
		c-4.6,7.2-6.9,13.4-6.9,18.8c0,2.3,0.4,4.1,1.3,5.6c0.9,1.5,2.3,2.2,4.3,2.2C497.7,262.2,501.4,258.3,505.6,250.6z"/>
</g>
</svg>
